<svg width="24" height="24" viewBox="0 0 24 24" fill="none" xmlns="http://www.w3.org/2000/svg">
<path d="M10 2.5C10 2.36739 9.94732 2.24021 9.85355 2.14645C9.75979 2.05268 9.63261 2 9.5 2H6.5C6.36739 2 6.24021 2.05268 6.14645 2.14645C6.05268 2.24021 6 2.36739 6 2.5V5H10V2.5Z" fill="#3485FF"/>
<path d="M3 21.5C3 21.6326 3.05268 21.7598 3.14645 21.8536C3.24021 21.9473 3.36739 22 3.5 22H10.5C10.6326 22 10.7598 21.9473 10.8536 21.8536C10.9473 21.7598 11 21.6326 11 21.5V17H3V21.5Z" fill="#3485FF"/>
<path d="M15.5 10H8.5C8.22386 10 8 10.2239 8 10.5V12.5C8 12.7761 8.22386 13 8.5 13H15.5C15.7761 13 16 12.7761 16 12.5V10.5C16 10.2239 15.7761 10 15.5 10Z" fill="#3485FF"/>
<path d="M7 12.5V10.5C7.00044 10.1023 7.15861 9.72103 7.43982 9.43982C7.72103 9.15861 8.10231 9.00044 8.5 9H11V6H5L3 16H11V14H8.5C8.10231 13.9996 7.72103 13.8414 7.43982 13.5602C7.15861 13.279 7.00044 12.8977 7 12.5Z" fill="#3485FF"/>
<path d="M18 2.5C18 2.36739 17.9473 2.24021 17.8536 2.14645C17.7598 2.05268 17.6326 2 17.5 2H14.5C14.3674 2 14.2402 2.05268 14.1464 2.14645C14.0527 2.24021 14 2.36739 14 2.5V5H18V2.5Z" fill="#3485FF"/>
<path d="M13 21.5C13 21.6326 13.0527 21.7598 13.1464 21.8536C13.2402 21.9473 13.3674 22 13.5 22H20.5C20.6326 22 20.7598 21.9473 20.8536 21.8536C20.9473 21.7598 21 21.6326 21 21.5V17H13V21.5Z" fill="#3485FF"/>
<path d="M17 10.5V12.5C16.9996 12.8977 16.8414 13.279 16.5602 13.5602C16.279 13.8414 15.8977 13.9996 15.5 14H13V16H21L19 6H13V9H15.5C15.8977 9.00044 16.279 9.15861 16.5602 9.43982C16.8414 9.72103 16.9996 10.1023 17 10.5Z" fill="#3485FF"/>
</svg>
