<svg width="24" height="24" viewBox="0 0 24 24" fill="none" xmlns="http://www.w3.org/2000/svg">
<path d="M21.9471 14.2764L20.4471 11.2764C20.4009 11.1989 20.3354 11.1347 20.257 11.0902C20.1786 11.0456 20.09 11.0222 19.9998 11.0222C19.9096 11.0222 19.821 11.0456 19.7426 11.0902C19.6642 11.1347 19.5987 11.1989 19.5525 11.2764L18.0525 14.2764C18.0145 14.3526 17.9965 14.4373 18.0003 14.5225C18.0042 14.6076 18.0298 14.6904 18.0746 14.7629C18.1194 14.8354 18.182 14.8952 18.2565 14.9367C18.3309 14.9782 18.4147 15 18.5 15H18.9829C18.7855 17.8589 16.891 20.7568 13 20.9853V12H14.5C14.5656 12 14.6307 11.9871 14.6914 11.962C14.752 11.9369 14.8072 11.9001 14.8536 11.8537C14.9 11.8072 14.9369 11.7521 14.962 11.6914C14.9871 11.6307 15 11.5657 15 11.5V10.5C15 10.4343 14.9871 10.3693 14.962 10.3086C14.9369 10.2479 14.9 10.1928 14.8536 10.1464C14.8072 10.0999 14.752 10.0631 14.6914 10.038C14.6307 10.0129 14.5656 9.99997 14.5 10H13V6.81574C13.667 6.5813 14.2296 6.11823 14.5878 5.50862C14.946 4.89901 15.0768 4.18224 14.957 3.48539C14.8372 2.78854 14.4745 2.15663 13.9332 1.70168C13.3919 1.24674 12.707 0.99816 12 1.00001C11.2929 0.99816 10.608 1.24674 10.0667 1.70168C9.52544 2.15663 9.16273 2.78854 9.04291 3.48539C8.92309 4.18224 9.05389 4.89901 9.41212 5.50862C9.77036 6.11823 10.3329 6.5813 11 6.81574V10H9.49996C9.43429 9.99997 9.36925 10.0129 9.30857 10.038C9.24789 10.0631 9.19276 10.0999 9.14632 10.1464C9.09988 10.1928 9.06306 10.2479 9.03794 10.3086C9.01283 10.3693 8.99992 10.4343 8.99996 10.5V11.5C8.99992 11.5657 9.01283 11.6307 9.03794 11.6914C9.06306 11.7521 9.09988 11.8072 9.14632 11.8537C9.19276 11.9001 9.24789 11.9369 9.30857 11.962C9.36925 11.9871 9.43429 12 9.49996 12H11V20.9853C7.10894 20.7568 5.21441 17.8589 5.01716 15H5.49996C5.58518 15 5.66897 14.9782 5.74339 14.9366C5.81781 14.8951 5.88039 14.8353 5.92519 14.7628C5.97 14.6903 5.99553 14.6076 5.99939 14.5225C6.00324 14.4373 5.98528 14.3526 5.94721 14.2764L4.44721 11.2764C4.40106 11.1989 4.33557 11.1348 4.25717 11.0902C4.17876 11.0457 4.09013 11.0222 3.99995 11.0222C3.90977 11.0222 3.82114 11.0457 3.74274 11.0902C3.66433 11.1348 3.59884 11.1989 3.55269 11.2764L2.05269 14.2764C2.01461 14.3526 1.99665 14.4374 2.00051 14.5225C2.00437 14.6076 2.02993 14.6904 2.07475 14.7629C2.11957 14.8354 2.18217 14.8952 2.25661 14.9367C2.33105 14.9782 2.41486 15 2.50009 15H3.01474C3.1448 17.1631 4.09509 19.1951 5.67182 20.6817C7.24855 22.1683 9.33295 22.9974 11.5 23H12.5C14.667 22.9974 16.7514 22.1683 18.3281 20.6817C19.9048 19.1951 20.8551 17.1631 20.9852 15H21.4998C21.585 15 21.6688 14.9782 21.7432 14.9366C21.8177 14.8951 21.8802 14.8353 21.925 14.7628C21.9698 14.6903 21.9954 14.6076 21.9992 14.5225C22.0031 14.4373 21.9851 14.3526 21.9471 14.2764V14.2764ZM12 5.00001C11.8022 5.00001 11.6088 4.94136 11.4444 4.83148C11.2799 4.7216 11.1518 4.56542 11.0761 4.38269C11.0004 4.19997 10.9806 3.9989 11.0192 3.80492C11.0578 3.61094 11.153 3.43276 11.2929 3.2929C11.4327 3.15305 11.6109 3.05781 11.8049 3.01922C11.9989 2.98064 12.1999 3.00044 12.3826 3.07613C12.5654 3.15182 12.7216 3.27999 12.8314 3.44444C12.9413 3.60889 13 3.80223 13 4.00001C12.9996 4.26513 12.8942 4.51929 12.7067 4.70675C12.5192 4.89422 12.2651 4.99968 12 5.00001Z" fill="#3485FF"/>
</svg>
