<svg width="24" height="24" viewBox="0 0 24 24" fill="none" xmlns="http://www.w3.org/2000/svg">
<path d="M8.55279 10.2766C8.59895 10.1991 8.66444 10.1349 8.74285 10.0904C8.82125 10.0458 8.90989 10.0224 9.00007 10.0224C9.09025 10.0224 9.17888 10.0458 9.25729 10.0904C9.33569 10.1349 9.40118 10.1991 9.44734 10.2766C9.70662 10.7946 10.4737 12.0002 12.0001 12.0002C13.5264 12.0002 14.2935 10.7946 14.5528 10.2766C14.599 10.1991 14.6644 10.1349 14.7428 10.0904C14.8213 10.0458 14.9099 10.0224 15.0001 10.0224C15.0902 10.0224 15.1789 10.0458 15.2573 10.0904C15.3357 10.1349 15.4012 10.1991 15.4473 10.2766C15.8171 11.0166 17.3558 11.8191 18.9965 11.9306C18.9791 10.0862 18.234 8.32336 16.9235 7.02545C15.613 5.72755 13.843 4.99961 11.9985 5C10.1541 5.00039 8.38436 5.72906 7.07438 7.02751C5.7644 8.32596 5.02011 10.0892 5.00342 11.9335C6.62329 11.8302 8.18342 11.0162 8.55279 10.2766Z" fill="#3485FF"/>
<path d="M12.0001 16.5C11.3997 16.4943 10.8094 16.3444 10.279 16.063C9.74859 15.7815 9.29356 15.3768 8.95222 14.8828C8.23151 15.529 7.36014 15.9839 6.41797 16.2059C7.06734 17.0733 7.90992 17.7774 8.87885 18.2624C9.84779 18.7474 10.9164 19 12 19C13.0835 19 14.1521 18.7475 15.1211 18.2625C16.09 17.7776 16.9326 17.0735 17.582 16.2061C16.6399 15.9843 15.7685 15.5296 15.0476 14.8838C14.7061 15.3775 14.2511 15.7821 13.7208 16.0633C13.1905 16.3446 12.6003 16.4943 12.0001 16.5Z" fill="#3485FF"/>
<path d="M12.0002 13.0001C11.3998 12.9944 10.8095 12.8446 10.2791 12.5631C9.74865 12.2817 9.29363 11.8769 8.95233 11.3829C8.1062 12.2147 6.57627 12.8277 5.06982 12.9329C5.1796 13.7693 5.44071 14.5786 5.8404 15.3215C7.19977 15.037 8.2707 14.3419 8.5529 13.7765C8.59921 13.6992 8.66475 13.6352 8.74314 13.5908C8.82152 13.5464 8.91008 13.523 9.00017 13.523C9.09027 13.523 9.17883 13.5464 9.25721 13.5908C9.3356 13.6352 9.40114 13.6992 9.44745 13.7765C9.70673 14.2951 10.4738 15.5001 12.0002 15.5001C13.5266 15.5001 14.2936 14.2951 14.5529 13.7765C14.5992 13.6992 14.6648 13.6352 14.7431 13.5908C14.8215 13.5464 14.9101 13.523 15.0002 13.523C15.0903 13.523 15.1788 13.5464 15.2572 13.5908C15.3356 13.6352 15.4011 13.6992 15.4475 13.7765C15.7301 14.3418 16.8013 15.0377 18.16 15.3215C18.5596 14.5789 18.8207 13.7697 18.9304 12.9336C17.4261 12.8298 15.8939 12.2144 15.0479 11.3828C14.7066 11.8768 14.2516 12.2816 13.7212 12.5631C13.1908 12.8445 12.6006 12.9944 12.0002 13.0001Z" fill="#3485FF"/>
<path d="M12 2C10.0222 2 8.0888 2.58649 6.4443 3.6853C4.79981 4.78412 3.51809 6.3459 2.76121 8.17317C2.00433 10.0004 1.8063 12.0111 2.19215 13.9509C2.578 15.8907 3.53041 17.6725 4.92894 19.0711C6.32746 20.4696 8.10929 21.422 10.0491 21.8079C11.9889 22.1937 13.9996 21.9957 15.8268 21.2388C17.6541 20.4819 19.2159 19.2002 20.3147 17.5557C21.4135 15.9112 22 13.9778 22 12C21.9971 9.34874 20.9425 6.80692 19.0678 4.93219C17.1931 3.05747 14.6513 2.00295 12 2ZM12 20C10.4178 20 8.87104 19.5308 7.55544 18.6518C6.23985 17.7727 5.21447 16.5233 4.60897 15.0615C4.00347 13.5997 3.84504 11.9911 4.15372 10.4393C4.4624 8.88743 5.22433 7.46197 6.34315 6.34315C7.46197 5.22433 8.88744 4.4624 10.4393 4.15372C11.9911 3.84504 13.5997 4.00346 15.0615 4.60896C16.5233 5.21447 17.7727 6.23985 18.6518 7.55544C19.5308 8.87103 20 10.4178 20 12C19.9976 14.121 19.1539 16.1544 17.6542 17.6542C16.1544 19.1539 14.121 19.9976 12 20Z" fill="#3485FF"/>
</svg>
