<svg width="14" height="15" viewBox="0 0 14 15" fill="none" xmlns="http://www.w3.org/2000/svg">
<rect y="0.500488" width="14" height="14" rx="7" fill="#D5E5FB"/>
<path d="M7.82001 2.52832L7.69001 9.23393H6.30507L6.17508 2.52832H7.82001ZM7.00004 12.0283C6.72339 12.0283 6.48673 11.9395 6.29007 11.7618C6.09341 11.581 5.99675 11.3634 6.00008 11.1091C5.99675 10.8579 6.09341 10.6434 6.29007 10.4657C6.48673 10.2849 6.72339 10.1945 7.00004 10.1945C7.27003 10.1945 7.50335 10.2849 7.70001 10.4657C7.89667 10.6434 7.99667 10.8579 8 11.1091C7.99667 11.2776 7.94834 11.4324 7.85501 11.5733C7.76501 11.7112 7.64501 11.8215 7.49502 11.9042C7.34503 11.987 7.18003 12.0283 7.00004 12.0283Z" fill="#3485FF"/>
</svg>
