<svg width="72" height="72" viewBox="0 0 72 72" fill="none" xmlns="http://www.w3.org/2000/svg">
<g opacity="0.5">
<rect x="1.53191" y="1.53191" width="68.9362" height="68.9362" rx="34.4681" fill="#D5E5FB"/>
<path d="M40.217 10.4285L39.5484 44.9145H32.4259L31.7573 10.4285H40.217ZM36 59.2856C34.5772 59.2856 33.3601 58.8286 32.3487 57.9147C31.3373 56.985 30.8402 55.8662 30.8574 54.5583C30.8402 53.2661 31.3373 52.1631 32.3487 51.2491C33.3601 50.3194 34.5772 49.8545 36 49.8545C37.3885 49.8545 38.5885 50.3194 39.5999 51.2491C40.6112 52.1631 41.1255 53.2661 41.1426 54.5583C41.1255 55.4249 40.8769 56.2207 40.397 56.9456C39.9341 57.6547 39.317 58.222 38.5456 58.6474C37.7742 59.0729 36.9257 59.2856 36 59.2856Z" fill="white"/>
<rect x="1.53191" y="1.53191" width="68.9362" height="68.9362" rx="34.4681" stroke="#F4F6F9" stroke-width="3.06383"/>
</g>
</svg>
