<svg width="24" height="24" viewBox="0 0 24 24" fill="none" xmlns="http://www.w3.org/2000/svg">
<path d="M7.87549 2.99951V6.74951" stroke="#3485FF" stroke-width="1.53125" stroke-linecap="round" stroke-linejoin="round"/>
<path d="M7.87549 10.874V20.999" stroke="#3485FF" stroke-width="1.53125" stroke-linecap="round" stroke-linejoin="round"/>
<path d="M10.5005 2.99951L11.2505 7.49951C11.2505 8.39462 10.8949 9.25306 10.262 9.886C9.62904 10.5189 8.77059 10.8745 7.87549 10.8745C6.98038 10.8745 6.12194 10.5189 5.489 9.886C4.85607 9.25306 4.50049 8.39462 4.50049 7.49951L5.25049 2.99951" stroke="#3485FF" stroke-width="1.53125" stroke-linecap="round" stroke-linejoin="round"/>
<path d="M19.1245 14.9995H13.8745C13.8745 14.9995 14.9995 4.49951 19.1245 2.99951V14.9995Z" fill="#3485FF"/>
<path d="M19.1245 2.99951C14.9995 4.49951 13.8745 14.9995 13.8745 14.9995H19.1245V2.99951ZM19.1245 2.99951V20.9995" stroke="#3485FF" stroke-width="1.53125" stroke-linecap="round" stroke-linejoin="round"/>
</svg>
