<svg width="20" height="20" viewBox="0 0 20 20" fill="none" xmlns="http://www.w3.org/2000/svg">
<rect y="0.000488281" width="20" height="20" rx="10" fill="#D5E5FB"/>
<path d="M6.875 12.5005C9.11866 12.5005 10.9375 10.6816 10.9375 8.43799C10.9375 6.19433 9.11866 4.37549 6.875 4.37549C4.63134 4.37549 2.8125 6.19433 2.8125 8.43799C2.8125 10.6816 4.63134 12.5005 6.875 12.5005Z" stroke="#0E254B" stroke-opacity="0.6" stroke-width="1.53846" stroke-miterlimit="10"/>
<path d="M12.1416 4.52677C12.7004 4.36934 13.2864 4.33347 13.8602 4.42159C14.434 4.50971 14.9822 4.71977 15.468 5.03761C15.9538 5.35546 16.3658 5.77372 16.6763 6.26421C16.9868 6.7547 17.1886 7.30604 17.2681 7.88109C17.3476 8.45614 17.303 9.04155 17.1372 9.59789C16.9714 10.1542 16.6883 10.6686 16.307 11.1063C15.9256 11.544 15.4549 11.8949 14.9266 12.1354C14.3982 12.3759 13.8244 12.5004 13.2439 12.5004" stroke="#0E254B" stroke-opacity="0.6" stroke-width="1.53846" stroke-linecap="round" stroke-linejoin="round"/>
<path d="M1.24951 15.4221C1.88399 14.5196 2.7263 13.783 3.70533 13.2745C4.68436 12.766 5.77137 12.5005 6.87458 12.5005C7.97779 12.5004 9.06481 12.7658 10.0439 13.2743C11.0229 13.7827 11.8653 14.5192 12.4999 15.4217" stroke="#0E254B" stroke-opacity="0.6" stroke-width="1.53846" stroke-linecap="round" stroke-linejoin="round"/>
<path d="M13.2441 12.5005C14.3475 12.4997 15.4347 12.7648 16.4139 13.2733C17.393 13.7817 18.2352 14.5187 18.8692 15.4217" stroke="#0E254B" stroke-opacity="0.6" stroke-width="1.53846" stroke-linecap="round" stroke-linejoin="round"/>
</svg>
