<svg width="24" height="24" viewBox="0 0 24 24" fill="none" xmlns="http://www.w3.org/2000/svg">
<path d="M12.7754 6.99083L12.9692 9.8463L21.5406 9.44921C17.8005 7.95212 16.8654 7.68169 13.686 6.5591C13.606 6.48674 13.5064 6.43972 13.3997 6.42399C13.2929 6.40827 13.184 6.42454 13.0865 6.47075C12.989 6.51696 12.9074 6.59103 12.8521 6.6836C12.7967 6.77617 12.77 6.88309 12.7754 6.99083Z" fill="#3485FF"/>
<path d="M2.83618 14.7264C2.8808 14.8153 3.28021 14.9505 3.3643 15.0037C3.4484 15.0568 3.5454 15.086 3.64485 15.0881L3.80925 15.0913C4.4427 14.615 5.2081 14.3464 6.00031 14.3226C6.82319 14.3495 7.61658 14.6354 8.26736 15.1397C8.28612 15.1523 8.30949 15.1668 8.33008 15.1803L9.09421 15.1954L9.10591 15.1887C9.97195 14.6385 10.9734 14.3387 11.9994 14.3226C13.0256 14.3385 14.0273 14.638 14.8938 15.1881C14.9641 15.2278 15.0454 15.2732 15.1212 15.314L15.4665 15.3208C15.5458 15.265 15.6469 15.1973 15.7279 15.1428C16.3802 14.637 17.1754 14.35 18.0003 14.3226C19.1063 14.3523 19.1063 14.7264 19.4803 14.9134C19.6674 15.1004 19.8544 14.9134 19.8544 14.9134L22.8519 10.7484C22.8936 10.6652 22.9132 10.5728 22.9091 10.4799C22.905 10.387 22.8771 10.2966 22.8282 10.2175C22.7793 10.1384 22.711 10.0731 22.6297 10.0279C22.5485 9.98261 22.457 9.9589 22.3639 9.95898L1.63652 11.1016C1.54351 11.1015 1.45202 11.1252 1.37076 11.1705C1.28949 11.2157 1.22116 11.281 1.17226 11.3601C1.12335 11.4392 1.09551 11.5296 1.09136 11.6225C1.08722 11.7154 1.10692 11.8078 1.14858 11.891L1.09152 14.1653L2.08813 14.3523L2.83618 14.7264Z" fill="#3485FF"/>
<path d="M23.4545 15.4131C22.744 15.4131 22.2358 15.7513 21.7883 16.0501C21.4229 16.2936 21.1076 16.504 20.7273 16.504C20.347 16.504 20.0316 16.2936 19.6662 16.0501C19.2188 15.7513 18.7106 15.4131 18 15.4131C17.2894 15.4131 16.7823 15.7513 16.3338 16.0496C15.9695 16.2931 15.6541 16.5029 15.2727 16.5029C14.9429 16.4562 14.6291 16.3311 14.3576 16.1381C13.6555 15.6805 12.839 15.4293 12.0011 15.4131H11.9989C11.1611 15.4295 10.3446 15.6807 9.64241 16.1381C9.37093 16.3311 9.05711 16.4562 8.72727 16.5029H8.72621C8.34589 16.5029 8.03054 16.2929 7.6662 16.0496C7.21767 15.7513 6.71059 15.4131 6 15.4131C5.28941 15.4131 4.78126 15.7513 4.3338 16.0501C3.96835 16.2936 3.65305 16.504 3.27273 16.504C2.89241 16.504 2.57705 16.2936 2.21165 16.0501C1.76422 15.7513 1.25605 15.4131 0.545455 15.4131C0.400791 15.4131 0.262052 15.4706 0.15976 15.5728C0.0574673 15.6751 0 15.8139 0 15.9585C0 16.1032 0.0574673 16.2419 0.15976 16.3442C0.262052 16.4465 0.400791 16.504 0.545455 16.504C0.925773 16.504 1.24113 16.7144 1.60653 16.9578C2.05399 17.2567 2.56214 17.5949 3.27273 17.5949C3.98332 17.5949 4.49149 17.2567 4.93893 16.9578C5.30438 16.7144 5.61968 16.504 6 16.504C6.38032 16.504 6.69567 16.7144 7.06107 16.9573C7.50854 17.2556 8.01668 17.5938 8.72621 17.5938H8.72727C9.24758 17.5568 9.74869 17.3821 10.1793 17.0878C10.7188 16.7258 11.3495 16.5235 11.9989 16.504H12.0011C12.6505 16.5235 13.2812 16.7258 13.8207 17.0878C14.2513 17.3821 14.7524 17.5568 15.2727 17.5938H15.2738C15.9833 17.5938 16.4915 17.2557 16.9389 16.9573C17.3044 16.7144 17.6197 16.504 18 16.504C18.3803 16.504 18.6957 16.7144 19.0611 16.9578C19.5085 17.2567 20.0167 17.5949 20.7273 17.5949C21.4379 17.5949 21.946 17.2567 22.3935 16.9578C22.7589 16.7144 23.0742 16.504 23.4545 16.504C23.5992 16.504 23.7379 16.4465 23.8402 16.3442C23.9425 16.2419 24 16.1032 24 15.9585C24 15.8139 23.9425 15.6751 23.8402 15.5728C23.7379 15.4706 23.5992 15.4131 23.4545 15.4131Z" fill="#3485FF"/>
<path d="M12.1238 9.31169L12.187 9.94518L7.62062 10.2402C11.0648 9.00698 10.5858 9.21411 11.0648 9.00698C11.1858 8.95467 11.3346 8.84773 11.4388 8.81991C11.5431 8.79209 11.6532 8.7958 11.7553 8.83057C11.8574 8.86534 11.9469 8.9296 12.0125 9.01524C12.0781 9.10088 12.1168 9.20404 12.1238 9.31169Z" fill="#3485FF"/>
</svg>
