<svg width="24" height="24" viewBox="0 0 24 24" fill="none" xmlns="http://www.w3.org/2000/svg">
<path d="M22.5005 11.5029H20.9752C20.8638 9.46686 20.0606 7.52984 18.6984 6.0125L19.7788 4.93163C19.8264 4.88547 19.8643 4.8303 19.8904 4.76934C19.9165 4.70838 19.9302 4.64284 19.9307 4.57654C19.9312 4.51024 19.9185 4.44451 19.8933 4.38316C19.8682 4.32181 19.8311 4.26607 19.7842 4.21919C19.7373 4.1723 19.6816 4.13522 19.6203 4.11008C19.5589 4.08494 19.4932 4.07225 19.4269 4.07275C19.3606 4.07326 19.295 4.08694 19.2341 4.11301C19.1731 4.13908 19.118 4.17702 19.0718 4.2246L17.9913 5.30543C16.474 3.94296 14.5368 3.13957 12.5005 3.02825V1.50293C12.5005 1.37032 12.4478 1.24314 12.354 1.14938C12.2603 1.05561 12.1331 1.00293 12.0005 1.00293C11.8679 1.00293 11.7407 1.05561 11.6469 1.14938C11.5532 1.24314 11.5005 1.37032 11.5005 1.50293V3.02825C9.46422 3.13957 7.52703 3.94296 6.00964 5.30543L4.92919 4.2246C4.83495 4.13319 4.70854 4.08251 4.57725 4.08351C4.44596 4.08451 4.32034 4.1371 4.2275 4.22994C4.13466 4.32278 4.08207 4.4484 4.08107 4.57969C4.08007 4.71098 4.13075 4.83739 4.22216 4.93163L5.30261 6.0125C3.94039 7.52984 3.13714 9.46686 3.02581 11.5029H1.50049C1.36788 11.5029 1.2407 11.5556 1.14693 11.6494C1.05317 11.7431 1.00049 11.8703 1.00049 12.0029C1.00049 12.1355 1.05317 12.2627 1.14693 12.3565C1.2407 12.4503 1.36788 12.5029 1.50049 12.5029H3.02581C3.13714 14.539 3.94039 16.476 5.30261 17.9934L4.22216 19.0742C4.17457 19.1204 4.13664 19.1756 4.11057 19.2365C4.0845 19.2975 4.07082 19.363 4.07031 19.4293C4.06981 19.4956 4.0825 19.5614 4.10763 19.6227C4.13277 19.6841 4.16986 19.7398 4.21675 19.7867C4.26363 19.8336 4.31936 19.8706 4.38071 19.8958C4.44206 19.9209 4.5078 19.9336 4.5741 19.9331C4.6404 19.9326 4.70594 19.9189 4.7669 19.8928C4.82786 19.8668 4.88302 19.8288 4.92919 19.7813L6.00964 18.7004C7.52703 20.0629 9.46422 20.8663 11.5005 20.9776V22.5029C11.5005 22.6355 11.5532 22.7627 11.6469 22.8565C11.7407 22.9503 11.8679 23.0029 12.0005 23.0029C12.1331 23.0029 12.2603 22.9503 12.354 22.8565C12.4478 22.7627 12.5005 22.6355 12.5005 22.5029V20.9776C14.5368 20.8663 16.474 20.0629 17.9913 18.7004L19.0718 19.7813C19.118 19.8288 19.1731 19.8668 19.2341 19.8928C19.295 19.9189 19.3606 19.9326 19.4269 19.9331C19.4932 19.9336 19.5589 19.9209 19.6203 19.8958C19.6816 19.8706 19.7373 19.8336 19.7842 19.7867C19.8311 19.7398 19.8682 19.6841 19.8933 19.6227C19.9185 19.5614 19.9312 19.4956 19.9307 19.4293C19.9302 19.363 19.9165 19.2975 19.8904 19.2365C19.8643 19.1756 19.8264 19.1204 19.7788 19.0742L18.6984 17.9934C20.0606 16.476 20.8638 14.539 20.9752 12.5029H22.5005C22.6331 12.5029 22.7603 12.4503 22.854 12.3565C22.9478 12.2627 23.0005 12.1355 23.0005 12.0029C23.0005 11.8703 22.9478 11.7431 22.854 11.6494C22.7603 11.5556 22.6331 11.5029 22.5005 11.5029ZM17.2846 16.5799L13.7171 13.0124C13.8114 12.8533 13.8829 12.6818 13.9295 12.5029H18.9752C18.8687 14.0093 18.2754 15.4402 17.2846 16.5799ZM5.02581 12.5029H10.0715C10.1181 12.6819 10.1897 12.8534 10.284 13.0125L6.71646 16.58C5.72567 15.4403 5.13229 14.0093 5.02581 12.5029ZM6.71644 7.42595L10.2839 10.9935C10.1897 11.1525 10.1181 11.324 10.0715 11.5029H5.02581C5.13228 9.99655 5.72565 8.56563 6.71644 7.42595ZM13.0099 10.2863C12.8509 10.1921 12.6794 10.1206 12.5005 10.074V5.02825C14.0069 5.13471 15.4378 5.72809 16.5775 6.71888L13.0099 10.2863ZM11.5005 10.074C11.3216 10.1206 11.1501 10.1921 10.991 10.2863L7.42354 6.7188C8.56321 5.72804 9.99412 5.1347 11.5005 5.02825V10.074ZM10.991 13.7196C11.1501 13.8138 11.3216 13.8852 11.5005 13.9319V18.9776C9.99411 18.8711 8.56318 18.2778 7.42351 17.287L10.991 13.7196ZM12.5005 13.9319C12.6794 13.8852 12.8509 13.8138 13.01 13.7196L16.5775 17.2871C15.4378 18.2778 14.0069 18.8712 12.5005 18.9776V13.9319ZM13.9295 11.5029C13.8828 11.324 13.8113 11.1525 13.717 10.9934L17.2845 7.4259C18.2753 8.56559 18.8687 9.99653 18.9752 11.5029H13.9295Z" fill="#3485FF"/>
</svg>
