<svg width="14" height="23" viewBox="0 0 14 23" fill="none" xmlns="http://www.w3.org/2000/svg">
<path d="M7.57812 12.4238H0.302734V10.8906H7.57812C8.28776 10.8906 8.87044 10.7767 9.32617 10.5488C9.7819 10.321 10.1172 9.9987 10.332 9.58203C10.5534 9.16536 10.6641 8.67383 10.6641 8.10742C10.6641 7.64518 10.5599 7.20247 10.3516 6.7793C10.1497 6.35612 9.82096 6.00781 9.36523 5.73438C8.91602 5.46094 8.32031 5.32422 7.57812 5.32422H4.19922V18H2.32422V3.78125H7.57812C8.65234 3.78125 9.55729 3.9668 10.293 4.33789C11.0286 4.70247 11.5853 5.21029 11.9629 5.86133C12.347 6.50586 12.5391 7.24805 12.5391 8.08789C12.5391 8.99935 12.347 9.7806 11.9629 10.4316C11.5853 11.0762 11.0286 11.571 10.293 11.916C9.55729 12.2546 8.65234 12.4238 7.57812 12.4238ZM7.46094 13.7617V15.3047H0.302734V13.7617H7.46094Z" fill="black"/>
</svg>
